<?xml version="1.0" encoding="UTF-8"?>
<svg id="Layer_1" data-name="Layer 1" xmlns="http://www.w3.org/2000/svg" viewBox="0 0 378.15 65.03">
  <defs>
    <style>
      .cls-1, .cls-2 {
        fill: #153c88;
      }

      .cls-3 {
        fill: #e3bb25;
      }

      .cls-3, .cls-2, .cls-4, .cls-5 {
        fill-rule: evenodd;
      }

      .cls-4, .cls-6 {
        fill: #de2737;
      }

      .cls-5 {
        fill: #ffcc4e;
      }
    </style>
  </defs>
  <g>
    <path class="cls-1" d="m71.18,12.73h8.89v38.8h-8.89v-15.41h-12.23v15.41h-8.89V12.73h8.89v14.86h12.23v-14.86Z"/>
    <path class="cls-1" d="m103.86,23.81h8.34v27.72h-8.34v-2.61c-1.95,2.27-4.72,3.38-8.28,3.38s-6.78-1.39-9.39-4.21c-2.61-2.83-3.89-6.32-3.89-10.42s1.28-7.54,3.89-10.37c2.61-2.83,5.72-4.27,9.39-4.27s6.34,1.11,8.28,3.38v-2.61Zm-6.61,20.62c1.95,0,3.56-.61,4.78-1.83,1.22-1.22,1.83-2.88,1.83-4.93s-.61-3.71-1.83-4.93c-1.22-1.22-2.83-1.83-4.78-1.83s-3.56.61-4.78,1.83c-1.22,1.22-1.83,2.88-1.83,4.93s.61,3.71,1.83,4.93c1.22,1.22,2.83,1.83,4.78,1.83Z"/>
    <path class="cls-1" d="m115.53,12.73h8.89v25.5c0,3.6,2.06,5.43,6.11,5.43s6.11-1.83,6.11-5.43V12.73h8.89v26.28c0,4.05-1.39,7.32-4.22,9.7-2.83,2.38-6.39,3.6-10.78,3.6s-7.95-1.22-10.78-3.6c-2.83-2.38-4.22-5.65-4.22-9.7V12.73Z"/>
    <path class="cls-1" d="m149.15,12.73h8.89v38.8h-8.89V12.73Z"/>
  </g>
  <g>
    <path class="cls-2" d="m4.85,12.18h34.57c1.5,0,2.72,1.22,2.72,2.71v34.48c0,1.49-1.22,2.71-2.72,2.71H4.85c-1.5,0-2.72-1.22-2.72-2.71V14.9c0-1.49,1.22-2.71,2.72-2.71"/>
    <path class="cls-5" d="m4.97,12.75h34.34c1.24,0,2.26,1.01,2.26,2.25v34.25c0,1.24-1.02,2.26-2.26,2.26H4.97c-1.24,0-2.26-1.02-2.26-2.26V15.01c0-1.24,1.02-2.25,2.26-2.25"/>
    <path class="cls-4" d="m5.75,41.55h32.47c.12,0,.23,0,.31,0v.04c-.08,0-.19.02-.33.04-13.02,1.36-24.02,3.64-32.45,7.32v-7.39Z"/>
    <path class="cls-6" d="m23.02,18.58c2.19.05,4.17.93,5.65,2.33l.58-.58c-1.62-1.55-3.81-2.53-6.23-2.57v.82Zm6.59,1.65l-1.04,1.04c1.43,1.42,2.32,3.37,2.37,5.53h1.48c-.05-2.57-1.11-4.89-2.81-6.58Zm.92,6.76h2.3c0,2.69-1.07,5.13-2.8,6.92l-1.63-1.62c1.32-1.38,2.12-3.24,2.12-5.3Zm-7.51,10.38c1.34-.02,2.61-.3,3.79-.79,1.28-.53,2.43-1.3,3.38-2.25l-2.21-2.2c-.68.67-1.48,1.22-2.36,1.58-.8.33-1.68.52-2.61.55v3.11Zm-.19-3.44v3.77c-2.9,0-5.53-1.15-7.46-3.01l2.67-2.66c1.25,1.18,2.93,1.9,4.79,1.9Zm-11.07-6.76c.05,2.97,1.28,5.66,3.24,7.62h0l3.13-3.13c-1.16-1.16-1.89-2.74-1.94-4.49h-4.43Zm6.48-4.5c-1.06,1.13-1.72,2.64-1.72,4.31h0s-5.09,0-5.09,0h0c0-3.07,1.22-5.86,3.21-7.9l3.6,3.59Zm-3.76-4.01c2.14-2.13,5.09-3.45,8.35-3.45v5.9c-1.63,0-3.1.66-4.17,1.72l-4.18-4.17Z"/>
    <polygon class="cls-3" points="19.04 18.44 19.36 17.5 19.67 18.44 20.68 18.44 19.88 19.02 20.2 20.01 19.36 19.4 18.55 20 18.87 19.03 18.07 18.44 19.04 18.44"/>
    <path class="cls-2" d="m23.95,28.15c.25-.03.49-.07.71-.11-.07-.22-.16-.44-.26-.67-.07.13-.14.27-.22.4-.08.13-.16.26-.24.39m-3.26-2.14c-.17.04-.33.09-.47.15-.62.23-1,.52-1,.83s.38.6,1,.83c.14.05.3.1.47.15.1-.31.23-.64.39-.98-.16-.34-.29-.66-.39-.98Zm1.03-.19c-.25.03-.49.07-.71.11.07.22.16.44.26.67.07-.13.14-.26.22-.4.08-.13.16-.26.24-.39Zm1.81-.04c-.23-.02-.46-.02-.7-.02s-.47,0-.7.02c-.13.19-.25.38-.37.59-.12.21-.23.41-.33.61.1.21.21.42.33.63.12.2.24.4.36.58.23.02.46.02.7.02s.47,0,.7-.02c.13-.19.25-.38.37-.59.12-.21.23-.41.33-.62-.1-.2-.2-.4-.32-.6-.12-.21-.25-.41-.38-.6Zm1.13.15c-.22-.05-.46-.09-.71-.11.08.13.16.26.24.4.07.13.15.26.21.39.1-.23.19-.46.26-.67Zm.79.22c-.14-.05-.3-.1-.47-.15-.1.31-.23.64-.39.98.16.34.29.67.39.98.17-.04.32-.09.47-.15.62-.23,1-.52,1-.83s-.38-.6-1-.83Zm-4.54-.54c.32-.07.67-.12,1.04-.15.21-.3.43-.58.65-.82-.12-.12-.24-.23-.35-.32-.51-.42-.95-.6-1.22-.45-.27.15-.33.63-.22,1.28.03.15.06.3.1.47Zm2.37,2.91c-.15,0-.3,0-.46,0s-.31,0-.46-.01c.15.2.3.39.46.56.15-.17.31-.36.46-.56Zm1.47-.18c-.32.07-.67.12-1.05.15-.21.31-.44.58-.66.83.12.13.25.24.37.34.51.42.95.6,1.22.45.27-.15.33-.63.22-1.28-.03-.16-.06-.32-.11-.49Zm.32-2.66c.17.05.34.1.49.15.75.28,1.22.68,1.22,1.14s-.46.86-1.22,1.14c-.15.06-.31.11-.49.15.05.18.09.35.12.51.14.79.02,1.39-.38,1.62-.4.23-.98.03-1.6-.48-.13-.11-.26-.22-.39-.35-.13.13-.25.24-.37.34-.62.51-1.2.71-1.6.48-.4-.23-.52-.83-.38-1.62.03-.16.06-.33.11-.5-.17-.05-.34-.1-.49-.15-.75-.28-1.22-.68-1.22-1.14s.46-.86,1.22-1.14c.15-.06.32-.11.49-.15-.05-.17-.08-.33-.11-.49-.14-.79-.02-1.39.38-1.62.4-.23.98-.03,1.6.48.12.1.24.21.37.34.13-.13.25-.24.38-.35.62-.51,1.2-.71,1.6-.48.4.23.52.83.38,1.62-.03.16-.06.33-.11.5Zm-1.36-.23c.37.03.72.08,1.04.15.05-.17.08-.33.11-.48.11-.65.05-1.12-.22-1.28-.27-.15-.72.03-1.22.45-.12.1-.24.21-.36.33.22.24.44.52.65.82Zm-.88-.04c.15,0,.3,0,.45,0-.15-.2-.3-.39-.45-.56-.15.17-.3.36-.45.56.15,0,.3,0,.46,0Zm-1.92,2.92c-.05.17-.08.33-.11.48-.11.65-.05,1.12.22,1.28.27.15.72-.03,1.22-.45.12-.1.24-.21.36-.33-.22-.24-.44-.52-.65-.83-.37-.03-.72-.08-1.04-.15Zm.58-.58c-.08-.14-.15-.27-.23-.41-.1.23-.19.46-.26.67.22.05.46.08.71.11-.08-.12-.15-.25-.23-.38Z"/>
    <path class="cls-4" d="m20.22,24.91c-.12-.2-.05-.46.15-.57.2-.12.46-.05.57.15.12.2.05.46-.15.57-.2.12-.46.05-.57-.15m5.74.87c.22,0,.4.18.4.4s-.18.4-.4.4-.4-.18-.4-.4.18-.4.4-.4Zm-3.65,4.5c-.11.19-.35.25-.54.15-.19-.11-.26-.35-.15-.54.11-.19.35-.25.54-.14.19.11.25.35.15.54Z"/>
    <g>
      <path class="cls-1" d="m6.39,38.97v.74h.32v-.74h.44v1.91h-.44v-.76h-.32v.76h-.44v-1.91h.44Z"/>
      <path class="cls-1" d="m7.81,40.51l-.07.38h-.43l.41-1.91h.53l.35,1.91h-.43l-.06-.38h-.31Zm.27-.34l-.05-.36c-.01-.11-.04-.32-.06-.43h0c-.02.12-.05.33-.07.43l-.06.36h.23Z"/>
      <path class="cls-1" d="m8.81,40.89v-1.91h.4l.27.69c.05.12.14.36.19.51h0c-.01-.16-.04-.53-.04-.89v-.31h.38v1.91h-.4l-.26-.64c-.06-.15-.15-.4-.18-.54h0c0,.17.03.48.03.86v.33h-.38Z"/>
      <path class="cls-1" d="m11.52,39.89c0,.72-.26,1.02-.65,1.02-.48,0-.64-.51-.64-.98s.2-.97.66-.97c.52,0,.62.57.62.94Zm-.83.04c0,.45.08.6.19.6.12,0,.18-.23.18-.62,0-.33-.05-.58-.18-.58-.11,0-.19.18-.19.6Z"/>
      <path class="cls-1" d="m12.18,38.97v1.91h-.44v-1.91h.44Z"/>
      <path class="cls-1" d="m13.38,38.97v1.23c0,.25.07.33.15.33s.15-.06.15-.33v-1.23h.44v1.15c0,.49-.18.79-.58.79-.45,0-.59-.31-.59-.79v-1.14h.44Z"/>
      <path class="cls-1" d="m14.43,40.89v-1.91h.4l.27.69c.05.12.14.36.19.51h0c-.01-.16-.04-.53-.04-.89v-.31h.38v1.91h-.4l-.26-.64c-.06-.15-.15-.4-.18-.54h0c0,.17.03.48.03.86v.33h-.38Z"/>
      <path class="cls-1" d="m16.4,38.97v1.91h-.44v-1.91h.44Z"/>
      <path class="cls-1" d="m16.97,40.89l-.42-1.91h.49l.11.79c.03.2.06.42.08.63h0c.02-.22.04-.43.07-.64l.11-.79h.49l-.43,1.91h-.5Z"/>
      <path class="cls-1" d="m18.9,40.08h-.42v.43h.47v.38h-.91v-1.91h.88v.38h-.44v.36h.42v.36Z"/>
      <path class="cls-1" d="m19.21,39c.13-.02.29-.04.45-.04.21,0,.41.03.54.15.12.11.16.24.16.41,0,.19-.09.38-.29.47h0c.12.06.19.18.22.36.03.19.09.46.13.53h-.46c-.02-.05-.07-.25-.09-.45-.03-.23-.08-.28-.18-.28h-.04v.73h-.44v-1.88Zm.44.81h.06c.14,0,.21-.12.21-.26s-.05-.24-.19-.25c-.03,0-.06,0-.08.01v.5Z"/>
      <path class="cls-1" d="m20.58,40.45c.08.05.22.07.33.07.17,0,.24-.07.24-.17,0-.12-.08-.17-.25-.27-.31-.18-.36-.39-.36-.54,0-.31.21-.59.65-.59.13,0,.25.03.32.07l-.06.38c-.06-.03-.14-.07-.25-.07-.15,0-.22.08-.22.17,0,.08.04.14.26.26.26.15.35.35.35.54,0,.36-.27.6-.67.6-.16,0-.32-.04-.39-.07l.06-.38Z"/>
      <path class="cls-1" d="m22.22,38.97v1.91h-.44v-1.91h.44Z"/>
      <path class="cls-1" d="m22.74,39.38h-.33v-.41h1.11v.41h-.33v1.5h-.44v-1.5Z"/>
      <path class="cls-1" d="m24,40.89v-.7l-.42-1.21h.47l.11.45c.03.12.06.26.08.39h0c.02-.13.04-.27.07-.4l.09-.44h.45l-.42,1.2v.71h-.44Z"/>
      <path class="cls-1" d="m26.61,39.89c0,.72-.26,1.02-.65,1.02-.48,0-.64-.51-.64-.98s.2-.97.66-.97c.52,0,.62.57.62.94Zm-.83.04c0,.45.08.6.19.6.12,0,.18-.23.18-.62,0-.33-.05-.58-.18-.58-.11,0-.19.18-.19.6Z"/>
      <path class="cls-1" d="m26.83,38.97h.88v.38h-.44v.41h.41v.36h-.41v.75h-.44v-1.91Z"/>
      <path class="cls-1" d="m28.89,38.97v1.91h-.44v-1.91h.44Z"/>
      <path class="cls-1" d="m29.22,40.89v-1.91h.4l.27.69c.05.12.14.36.19.51h0c-.01-.16-.04-.53-.04-.89v-.31h.38v1.91h-.4l-.26-.64c-.06-.15-.15-.4-.18-.54h0c0,.17.03.48.03.86v.33h-.38Z"/>
      <path class="cls-1" d="m30.75,39c.1-.02.25-.04.41-.04.26,0,.44.06.57.18.17.16.24.41.24.77s-.1.66-.28.81c-.13.12-.32.18-.61.18-.13,0-.26-.01-.33-.02v-1.88Zm.44,1.54s.04,0,.06,0c.15,0,.28-.18.28-.65,0-.36-.08-.58-.27-.58-.02,0-.04,0-.06,0v1.22Z"/>
      <path class="cls-1" d="m32.62,38.97v1.23c0,.25.07.33.15.33s.15-.06.15-.33v-1.23h.44v1.15c0,.49-.18.79-.58.79-.45,0-.59-.31-.59-.79v-1.14h.44Z"/>
      <path class="cls-1" d="m33.62,40.45c.08.05.22.07.33.07.17,0,.24-.07.24-.17,0-.12-.08-.17-.25-.27-.31-.18-.36-.39-.36-.54,0-.31.21-.59.65-.59.13,0,.25.03.32.07l-.06.38c-.06-.03-.14-.07-.25-.07-.15,0-.22.08-.22.17,0,.08.04.14.26.26.26.15.35.35.35.54,0,.36-.27.6-.67.6-.16,0-.32-.04-.39-.07l.06-.38Z"/>
      <path class="cls-1" d="m35.02,39.38h-.33v-.41h1.11v.41h-.33v1.5h-.44v-1.5Z"/>
      <path class="cls-1" d="m35.99,39c.13-.02.29-.04.45-.04.21,0,.41.03.54.15.12.11.16.24.16.41,0,.19-.09.38-.29.47h0c.12.06.19.18.22.36.03.19.09.46.13.53h-.46c-.02-.05-.07-.25-.09-.45-.03-.23-.08-.28-.18-.28h-.04v.73h-.44v-1.88Zm.44.81h.06c.14,0,.21-.12.21-.26s-.05-.24-.19-.25c-.03,0-.06,0-.08.01v.5Z"/>
      <path class="cls-1" d="m37.6,40.89v-.7l-.42-1.21h.47l.11.45c.03.12.06.26.08.39h0c.02-.13.04-.27.07-.4l.09-.44h.45l-.42,1.2v.71h-.44Z"/>
    </g>
  </g>
  <g>
    <path class="cls-1" d="m180.27,35.84c0-.33-.12-.59-.35-.76-.23-.18-.66-.36-1.27-.56-.61-.2-1.09-.39-1.45-.58-.97-.52-1.45-1.23-1.45-2.11,0-.46.13-.87.39-1.23s.63-.64,1.12-.84c.49-.2,1.03-.3,1.64-.3s1.15.11,1.63.33c.48.22.85.53,1.11.93s.4.86.4,1.37h-1.76c0-.39-.12-.69-.37-.91-.25-.22-.59-.32-1.04-.32s-.76.09-1,.27c-.24.18-.36.42-.36.72,0,.28.14.51.42.7.28.19.69.36,1.23.53,1,.3,1.73.67,2.19,1.12s.69,1,.69,1.66c0,.74-.28,1.31-.84,1.73s-1.31.63-2.26.63c-.66,0-1.25-.12-1.79-.36-.54-.24-.95-.57-1.23-.99s-.42-.9-.42-1.45h1.76c0,.94.56,1.41,1.69,1.41.42,0,.74-.08.98-.25.23-.17.35-.41.35-.71Z"/>
    <path class="cls-1" d="m189.92,35.24c-.07.92-.41,1.64-1.02,2.16-.61.53-1.42.79-2.42.79-1.09,0-1.96-.37-2.58-1.1-.63-.74-.94-1.74-.94-3.03v-.52c0-.82.14-1.54.43-2.16.29-.62.7-1.1,1.24-1.43s1.16-.5,1.87-.5c.98,0,1.78.26,2.38.79.6.53.95,1.26,1.04,2.22h-1.76c-.04-.55-.2-.95-.46-1.2-.26-.25-.67-.37-1.2-.37-.59,0-1.03.21-1.32.63s-.44,1.07-.45,1.95v.64c0,.92.14,1.59.42,2.02s.72.64,1.32.64c.54,0,.95-.12,1.22-.37.27-.25.42-.63.46-1.15h1.76Z"/>
    <path class="cls-1" d="m198.02,38.08h-1.76v-3.65h-3.43v3.65h-1.76v-8.51h1.76v3.45h3.43v-3.45h1.76v8.51Z"/>
    <path class="cls-1" d="m206.57,34.01c0,.84-.15,1.57-.45,2.2-.3.63-.72,1.12-1.27,1.46s-1.19.51-1.9.51-1.34-.17-1.89-.51-.98-.82-1.29-1.45c-.3-.63-.46-1.35-.46-2.17v-.42c0-.84.15-1.57.45-2.21.3-.64.73-1.13,1.28-1.47s1.18-.51,1.9-.51,1.34.17,1.9.51.98.83,1.28,1.47c.3.64.45,1.37.45,2.21v.38Zm-1.78-.39c0-.89-.16-1.57-.48-2.03s-.78-.7-1.37-.7-1.05.23-1.37.69-.48,1.13-.49,2.01v.41c0,.87.16,1.54.48,2.02s.78.72,1.38.72,1.04-.23,1.36-.69.48-1.13.48-2.02v-.42Z"/>
    <path class="cls-1" d="m214.85,34.01c0,.84-.15,1.57-.45,2.2-.3.63-.72,1.12-1.27,1.46s-1.19.51-1.9.51-1.34-.17-1.89-.51-.98-.82-1.29-1.45c-.3-.63-.46-1.35-.46-2.17v-.42c0-.84.15-1.57.45-2.21.3-.64.73-1.13,1.28-1.47s1.18-.51,1.9-.51,1.34.17,1.9.51.98.83,1.28,1.47c.3.64.45,1.37.45,2.21v.38Zm-1.78-.39c0-.89-.16-1.57-.48-2.03s-.78-.7-1.37-.7-1.05.23-1.37.69-.48,1.13-.49,2.01v.41c0,.87.16,1.54.48,2.02s.78.72,1.38.72,1.04-.23,1.36-.69.48-1.13.48-2.02v-.42Z"/>
    <path class="cls-1" d="m217.89,36.67h3.73v1.41h-5.49v-8.51h1.76v7.1Z"/>
    <path class="cls-1" d="m232.63,34.01c0,.84-.15,1.57-.45,2.2-.3.63-.72,1.12-1.27,1.46s-1.19.51-1.9.51-1.34-.17-1.89-.51-.98-.82-1.29-1.45c-.3-.63-.46-1.35-.46-2.17v-.42c0-.84.15-1.57.45-2.21.3-.64.73-1.13,1.28-1.47s1.18-.51,1.9-.51,1.34.17,1.9.51.98.83,1.28,1.47c.3.64.45,1.37.45,2.21v.38Zm-1.78-.39c0-.89-.16-1.57-.48-2.03s-.78-.7-1.37-.7-1.05.23-1.37.69-.48,1.13-.49,2.01v.41c0,.87.16,1.54.48,2.02s.78.72,1.38.72,1.04-.23,1.36-.69.48-1.13.48-2.02v-.42Z"/>
    <path class="cls-1" d="m239.04,34.6h-3.38v3.48h-1.76v-8.51h5.56v1.42h-3.8v2.2h3.38v1.41Z"/>
    <path class="cls-1" d="m245.34,38.08h-1.76v-8.51h1.76v8.51Z"/>
    <path class="cls-1" d="m253.9,38.08h-1.76l-3.42-5.6v5.6h-1.76v-8.51h1.76l3.43,5.61v-5.61h1.75v8.51Z"/>
    <path class="cls-1" d="m260.57,34.6h-3.38v3.48h-1.76v-8.51h5.56v1.42h-3.8v2.2h3.38v1.41Z"/>
    <path class="cls-1" d="m269.02,34.01c0,.84-.15,1.57-.45,2.2-.3.63-.72,1.12-1.27,1.46s-1.19.51-1.9.51-1.34-.17-1.89-.51-.98-.82-1.29-1.45c-.3-.63-.46-1.35-.46-2.17v-.42c0-.84.15-1.57.45-2.21.3-.64.73-1.13,1.28-1.47s1.18-.51,1.9-.51,1.34.17,1.9.51.98.83,1.28,1.47c.3.64.45,1.37.45,2.21v.38Zm-1.78-.39c0-.89-.16-1.57-.48-2.03s-.78-.7-1.37-.7-1.05.23-1.37.69-.48,1.13-.49,2.01v.41c0,.87.16,1.54.48,2.02s.78.72,1.38.72,1.04-.23,1.36-.69.48-1.13.48-2.02v-.42Z"/>
    <path class="cls-1" d="m273.46,34.96h-1.4v3.12h-1.76v-8.51h3.17c1.01,0,1.79.22,2.33.67s.82,1.08.82,1.9c0,.58-.13,1.07-.38,1.45s-.63.7-1.15.93l1.85,3.48v.08h-1.89l-1.6-3.12Zm-1.4-1.42h1.42c.44,0,.78-.11,1.03-.34.24-.22.36-.53.36-.93s-.11-.72-.34-.95c-.23-.23-.58-.34-1.05-.34h-1.41v2.55Z"/>
    <path class="cls-1" d="m280.26,29.57l2.19,6.17,2.18-6.17h2.31v8.51h-1.76v-2.33l.18-4.02-2.3,6.34h-1.21l-2.3-6.34.18,4.01v2.33h-1.76v-8.51h2.3Z"/>
    <path class="cls-1" d="m293.4,36.32h-3.08l-.59,1.75h-1.87l3.18-8.51h1.63l3.19,8.51h-1.87l-.59-1.75Zm-2.61-1.42h2.13l-1.07-3.19-1.06,3.19Z"/>
    <path class="cls-1" d="m302.37,30.99h-2.61v7.09h-1.76v-7.09h-2.58v-1.42h6.95v1.42Z"/>
    <path class="cls-1" d="m305.25,38.08h-1.76v-8.51h1.76v8.51Z"/>
    <path class="cls-1" d="m313.88,34.01c0,.84-.15,1.57-.45,2.2-.3.63-.72,1.12-1.27,1.46s-1.19.51-1.9.51-1.34-.17-1.89-.51-.98-.82-1.29-1.45c-.3-.63-.46-1.35-.46-2.17v-.42c0-.84.15-1.57.45-2.21.3-.64.73-1.13,1.28-1.47s1.18-.51,1.9-.51,1.34.17,1.9.51.98.83,1.28,1.47c.3.64.45,1.37.45,2.21v.38Zm-1.78-.39c0-.89-.16-1.57-.48-2.03s-.78-.7-1.37-.7-1.05.23-1.37.69-.48,1.13-.49,2.01v.41c0,.87.16,1.54.48,2.02s.78.72,1.38.72,1.04-.23,1.36-.69.48-1.13.48-2.02v-.42Z"/>
    <path class="cls-1" d="m322.1,38.08h-1.76l-3.42-5.6v5.6h-1.76v-8.51h1.76l3.43,5.61v-5.61h1.75v8.51Z"/>
    <path class="cls-1" d="m175.5,49.13c0-.39.11-.76.33-1.09s.63-.71,1.22-1.12c-.25-.34-.45-.66-.6-.96s-.22-.61-.22-.93c0-.66.21-1.2.63-1.62s.99-.62,1.7-.62c.64,0,1.16.19,1.57.57s.61.85.61,1.41c0,.68-.34,1.28-1.03,1.79l-.66.47,1.47,1.71c.23-.45.35-.95.35-1.5h1.44c0,1.11-.26,2-.77,2.69l1.28,1.48h-1.92l-.44-.5c-.63.41-1.35.62-2.17.62s-1.52-.22-2.03-.66c-.51-.44-.76-1.02-.76-1.74Zm2.87,1.05c.41,0,.79-.11,1.16-.34l-1.68-1.94-.12.09c-.35.29-.52.64-.52,1.04,0,.34.11.61.33.83.22.21.5.32.85.32Zm-.62-5.17c0,.29.17.66.52,1.1l.45-.3c.23-.15.39-.29.48-.43.09-.14.13-.31.13-.5s-.07-.36-.22-.51c-.15-.14-.33-.22-.56-.22-.24,0-.44.08-.58.23-.15.16-.22.36-.22.62Z"/>
    <path class="cls-1" d="m193.41,48.59c-.07.92-.41,1.64-1.02,2.16-.61.53-1.42.79-2.42.79-1.09,0-1.96-.37-2.58-1.1-.63-.74-.94-1.74-.94-3.03v-.52c0-.82.14-1.54.43-2.16.29-.62.7-1.1,1.24-1.43s1.16-.5,1.87-.5c.98,0,1.78.26,2.38.79.6.53.95,1.26,1.04,2.22h-1.76c-.04-.55-.2-.95-.46-1.2-.26-.25-.67-.37-1.2-.37-.59,0-1.03.21-1.32.63s-.44,1.07-.45,1.95v.64c0,.92.14,1.59.42,2.02s.72.64,1.32.64c.54,0,.95-.12,1.22-.37.27-.25.42-.63.46-1.15h1.76Z"/>
    <path class="cls-1" d="m201.57,47.36c0,.84-.15,1.57-.45,2.2-.3.63-.72,1.12-1.27,1.46s-1.19.51-1.9.51-1.34-.17-1.89-.51-.98-.82-1.29-1.45c-.3-.63-.46-1.35-.46-2.17v-.42c0-.84.15-1.57.45-2.21.3-.64.73-1.13,1.28-1.47s1.18-.51,1.9-.51,1.34.17,1.9.51.98.83,1.28,1.47c.3.64.45,1.37.45,2.21v.38Zm-1.78-.39c0-.89-.16-1.57-.48-2.03s-.78-.7-1.37-.7-1.05.23-1.37.69-.48,1.13-.49,2.01v.41c0,.87.16,1.54.48,2.02s.78.72,1.38.72,1.04-.23,1.36-.69.48-1.13.48-2.02v-.42Z"/>
    <path class="cls-1" d="m205.15,42.92l2.19,6.17,2.18-6.17h2.31v8.51h-1.76v-2.33l.18-4.02-2.3,6.34h-1.21l-2.3-6.34.18,4.01v2.33h-1.76v-8.51h2.3Z"/>
    <path class="cls-1" d="m215.66,42.92l2.19,6.17,2.18-6.17h2.31v8.51h-1.76v-2.33l.18-4.02-2.3,6.34h-1.21l-2.3-6.34.18,4.01v2.33h-1.76v-8.51h2.3Z"/>
    <path class="cls-1" d="m230.34,42.92v5.6c0,.93-.29,1.67-.88,2.21-.58.54-1.38.81-2.39.81s-1.79-.26-2.37-.79c-.59-.53-.88-1.25-.9-2.17v-5.67h1.76v5.62c0,.56.13.96.4,1.22.27.26.64.38,1.11.38.99,0,1.49-.52,1.51-1.55v-5.66h1.76Z"/>
    <path class="cls-1" d="m238.72,51.42h-1.76l-3.42-5.6v5.6h-1.76v-8.51h1.76l3.43,5.61v-5.61h1.75v8.51Z"/>
    <path class="cls-1" d="m242.12,51.42h-1.76v-8.51h1.76v8.51Z"/>
    <path class="cls-1" d="m250.45,48.59c-.07.92-.41,1.64-1.02,2.16-.61.53-1.42.79-2.42.79-1.09,0-1.96-.37-2.58-1.1-.63-.74-.94-1.74-.94-3.03v-.52c0-.82.14-1.54.43-2.16.29-.62.7-1.1,1.24-1.43s1.16-.5,1.87-.5c.98,0,1.78.26,2.38.79.6.53.95,1.26,1.04,2.22h-1.76c-.04-.55-.2-.95-.46-1.2-.26-.25-.67-.37-1.2-.37-.59,0-1.03.21-1.32.63s-.44,1.07-.45,1.95v.64c0,.92.14,1.59.42,2.02s.72.64,1.32.64c.54,0,.95-.12,1.22-.37.27-.25.42-.63.46-1.15h1.76Z"/>
    <path class="cls-1" d="m256.42,49.67h-3.08l-.59,1.75h-1.87l3.18-8.51h1.63l3.19,8.51h-1.87l-.59-1.75Zm-2.61-1.42h2.13l-1.07-3.19-1.06,3.19Z"/>
    <path class="cls-1" d="m265.4,44.33h-2.61v7.09h-1.76v-7.09h-2.58v-1.42h6.95v1.42Z"/>
    <path class="cls-1" d="m268.27,51.42h-1.76v-8.51h1.76v8.51Z"/>
    <path class="cls-1" d="m276.91,47.36c0,.84-.15,1.57-.45,2.2-.3.63-.72,1.12-1.27,1.46s-1.19.51-1.9.51-1.34-.17-1.89-.51-.98-.82-1.29-1.45c-.3-.63-.46-1.35-.46-2.17v-.42c0-.84.15-1.57.45-2.21.3-.64.73-1.13,1.28-1.47s1.18-.51,1.9-.51,1.34.17,1.9.51.98.83,1.28,1.47c.3.64.45,1.37.45,2.21v.38Zm-1.78-.39c0-.89-.16-1.57-.48-2.03s-.78-.7-1.37-.7-1.05.23-1.37.69-.48,1.13-.49,2.01v.41c0,.87.16,1.54.48,2.02s.78.72,1.38.72,1.04-.23,1.36-.69.48-1.13.48-2.02v-.42Z"/>
    <path class="cls-1" d="m285.12,51.42h-1.76l-3.42-5.6v5.6h-1.76v-8.51h1.76l3.43,5.61v-5.61h1.75v8.51Z"/>
    <path class="cls-1" d="m291.08,49.19c0-.33-.12-.59-.35-.76-.23-.18-.66-.36-1.27-.56-.61-.2-1.09-.39-1.45-.58-.97-.52-1.45-1.23-1.45-2.11,0-.46.13-.87.39-1.23s.63-.64,1.12-.84c.49-.2,1.03-.3,1.64-.3s1.15.11,1.63.33c.48.22.85.53,1.11.93s.4.86.4,1.37h-1.76c0-.39-.12-.69-.37-.91-.25-.22-.59-.32-1.04-.32s-.76.09-1,.27c-.24.18-.36.42-.36.72,0,.28.14.51.42.7.28.19.69.36,1.23.53,1,.3,1.73.67,2.19,1.12s.69,1,.69,1.66c0,.74-.28,1.31-.84,1.73s-1.31.63-2.26.63c-.66,0-1.25-.12-1.79-.36-.54-.24-.95-.57-1.23-.99s-.42-.9-.42-1.45h1.76c0,.94.56,1.41,1.69,1.41.42,0,.74-.08.98-.25.23-.17.35-.41.35-.71Z"/>
    <path class="cls-1" d="m303.1,44.33h-2.61v7.09h-1.76v-7.09h-2.58v-1.42h6.95v1.42Z"/>
    <path class="cls-1" d="m309.23,47.74h-3.38v2.28h3.96v1.41h-5.72v-8.51h5.71v1.42h-3.95v2.03h3.38v1.37Z"/>
    <path class="cls-1" d="m317.55,48.59c-.07.92-.41,1.64-1.02,2.16-.61.53-1.42.79-2.42.79-1.09,0-1.96-.37-2.58-1.1-.63-.74-.94-1.74-.94-3.03v-.52c0-.82.14-1.54.43-2.16.29-.62.7-1.1,1.24-1.43s1.16-.5,1.87-.5c.98,0,1.78.26,2.38.79.6.53.95,1.26,1.04,2.22h-1.76c-.04-.55-.2-.95-.46-1.2-.26-.25-.67-.37-1.2-.37-.59,0-1.03.21-1.32.63s-.44,1.07-.45,1.95v.64c0,.92.14,1.59.42,2.02s.72.64,1.32.64c.54,0,.95-.12,1.22-.37.27-.25.42-.63.46-1.15h1.76Z"/>
    <path class="cls-1" d="m325.65,51.42h-1.76v-3.65h-3.43v3.65h-1.76v-8.51h1.76v3.45h3.43v-3.45h1.76v8.51Z"/>
    <path class="cls-1" d="m334.12,51.42h-1.76l-3.42-5.6v5.6h-1.76v-8.51h1.76l3.43,5.61v-5.61h1.75v8.51Z"/>
    <path class="cls-1" d="m342.66,47.36c0,.84-.15,1.57-.45,2.2-.3.63-.72,1.12-1.27,1.46s-1.19.51-1.9.51-1.34-.17-1.89-.51-.98-.82-1.29-1.45c-.3-.63-.46-1.35-.46-2.17v-.42c0-.84.15-1.57.45-2.21.3-.64.73-1.13,1.28-1.47s1.18-.51,1.9-.51,1.34.17,1.9.51.98.83,1.28,1.47c.3.64.45,1.37.45,2.21v.38Zm-1.78-.39c0-.89-.16-1.57-.48-2.03s-.78-.7-1.37-.7-1.05.23-1.37.69-.48,1.13-.49,2.01v.41c0,.87.16,1.54.48,2.02s.78.72,1.38.72,1.04-.23,1.36-.69.48-1.13.48-2.02v-.42Z"/>
    <path class="cls-1" d="m345.7,50.02h3.73v1.41h-5.49v-8.51h1.76v7.1Z"/>
    <path class="cls-1" d="m357.07,47.36c0,.84-.15,1.57-.45,2.2-.3.63-.72,1.12-1.27,1.46s-1.19.51-1.9.51-1.34-.17-1.89-.51-.98-.82-1.29-1.45c-.3-.63-.46-1.35-.46-2.17v-.42c0-.84.15-1.57.45-2.21.3-.64.73-1.13,1.28-1.47s1.18-.51,1.9-.51,1.34.17,1.9.51.98.83,1.28,1.47c.3.64.45,1.37.45,2.21v.38Zm-1.78-.39c0-.89-.16-1.57-.48-2.03s-.78-.7-1.37-.7-1.05.23-1.37.69-.48,1.13-.49,2.01v.41c0,.87.16,1.54.48,2.02s.78.72,1.38.72,1.04-.23,1.36-.69.48-1.13.48-2.02v-.42Z"/>
    <path class="cls-1" d="m365.1,50.35c-.32.38-.76.67-1.34.88-.58.21-1.22.31-1.92.31-.74,0-1.39-.16-1.94-.48s-.99-.79-1.29-1.4c-.3-.61-.46-1.33-.47-2.16v-.58c0-.85.14-1.58.43-2.21.29-.62.7-1.1,1.24-1.43s1.17-.49,1.9-.49c1.01,0,1.8.24,2.37.72.57.48.91,1.18,1.01,2.1h-1.71c-.08-.49-.25-.84-.52-1.07-.27-.23-.64-.34-1.1-.34-.6,0-1.05.22-1.37.67s-.47,1.11-.47,2v.54c0,.89.17,1.57.51,2.02s.84.68,1.5.68,1.13-.14,1.41-.42v-1.47h-1.6v-1.29h3.36v3.4Z"/>
    <path class="cls-1" d="m369.47,46.75l1.78-3.83h1.92l-2.8,5.42v3.09h-1.79v-3.09l-2.8-5.42h1.93l1.76,3.83Z"/>
  </g>
  <rect class="cls-6" x="166.06" y="23.14" width="1.86" height="28.03"/>
</svg>